<svg xmlns="http://www.w3.org/2000/svg" viewBox="0 0 24 24" width="40" height="40">
  <defs>
    <linearGradient id="insta-grad" x1="0%" y1="100%" x2="100%" y2="0%">
      <stop offset="0%" stop-color="#fdf497"/>
      <stop offset="5%" stop-color="#fdf497"/>
      <stop offset="45%" stop-color="#fd5949"/>
      <stop offset="60%" stop-color="#d6249f"/>
      <stop offset="100%" stop-color="#285AEB"/>
    </linearGradient>
  </defs>
  <circle cx="12" cy="12" r="12" fill="url(#insta-grad)"/>
  <path d="M12 7.7c1.4 0 1.6 0 2.1.1.5.03.8.1.9.2.2.1.4.2.5.4.1.2.2.4.2.5.03.5.03.7.03 2.1s0 1.6-.03 2.1c-.03.5-.1.8-.2.9-.1.2-.2.4-.4.5-.2.1-.4.2-.5.2-.5.03-.7.03-2.1.03s-1.6 0-2.1-.03c-.5-.03-.8-.1-.9-.2-.2-.1-.4-.2-.5-.4-.1-.2-.2-.4-.2-.5-.03-.5-.03-.7-.03-2.1s0-1.6.03-2.1c.03-.5.1-.8.2-.9.1-.2.2-.4.4-.5.2-.1.4-.2.5-.2.5-.03.7-.03 2.1-.03M12 6.5c-1.4 0-1.6 0-2.2.03-.6.02-1 .1-1.3.25-.4.15-.7.35-.9.6-.25.2-.45.5-.6.9-.14.3-.23.7-.25 1.3C6.7 10.2 6.7 10.4 6.7 11.8s0 1.6.03 2.2c.02.6.1 1 .25 1.3.15.4.35.7.6.9.2.25.5.45.9.6.3.14.7.23 1.3.25.6.03.8.03 2.2.03s1.6 0 2.2-.03c.6-.02 1-.1 1.3-.25.4-.15.7-.35.9-.6.25-.2.45-.5.6-.9.14-.3.23-.7.25-1.3.03-.6.03-.8.03-2.2s0-1.6-.03-2.2c-.02-.6-.1-1-.25-1.3-.15-.4-.35-.7-.6-.9-.2-.25-.5-.45-.9-.6-.3-.14-.7-.23-1.3-.25-.6-.03-.8-.03-2.2-.03zm0 2.6A2.7 2.7 0 1 0 12 14.5a2.7 2.7 0 0 0 0-5.4zm0 4.2a1.5 1.5 0 1 1 0-3 1.5 1.5 0 0 1 0 3zm2.8-4.8a.6.6 0 1 0 0-1.3.6.6 0 0 0 0 1.3z" fill="#FFFFFF"/>
</svg>
