<svg xmlns="http://www.w3.org/2000/svg" viewBox="0 0 24 24" width="40" height="40">
  <circle cx="12" cy="12" r="12" fill="#0068FF"/>
  <path d="M12 3c-4.97 0-9 3.58-9 8 0 2.58 1.37 4.88 3.5 6.22l-.78 2.78c-.12.44.34.8.72.56l3.22-2c.73.22 1.53.34 2.34.34 4.97 0 9-3.58 9-8s-4.03-8-9-8z" fill="#FFFFFF"/>
  <g fill="#0068FF">
    <rect x="9.5" y="8.5" width="5" height="1.5"/>
    <rect x="9.5" y="14" width="5" height="1.5"/>
    <polygon points="14.5,8.5 14.5,10 11.3,14 9.5,14 9.5,12.5 12.7,8.5"/>
  </g>
</svg>
